<svg width="48" height="48" viewBox="0 0 48 48" fill="none"  xmlns="http://www.w3.org/2000/svg">
<path id="iconSettings" class="iconPath"  fill-rule="evenodd" clip-rule="evenodd" d="M28 12H6C4.89543 12 4 11.1046 4 10C4 8.89543 4.89543 8 6 8H28C28 5.79086 29.7909 4 32 4H36C38.2091 4 40 5.79086 40 8H42C43.1046 8 44 8.89543 44 10C44 11.1046 43.1046 12 42 12H40C40 14.2091 38.2091 16 36 16H32C29.7909 16 28 14.2091 28 12ZM36 8H32V12H36V10V8ZM42 22H24C24 19.7909 22.2091 18 20 18H16C13.7909 18 12 19.7909 12 22H6C4.89543 22 4 22.8954 4 24C4 25.1046 4.89543 26 6 26H12C12 28.2091 13.7909 30 16 30H20C22.2091 30 24 28.2091 24 26H42C43.1046 26 44 25.1046 44 24C44 22.8954 43.1046 22 42 22ZM20 22H16V26H20V24V22ZM42 36H36C36 33.7909 34.2091 32 32 32H28C25.7909 32 24 33.7909 24 36H6C4.89543 36 4 36.8954 4 38C4 39.1046 4.89543 40 6 40H24C24 42.2091 25.7909 44 28 44H32C34.2091 44 36 42.2091 36 40H42C43.1046 40 44 39.1046 44 38C44 36.8954 43.1046 36 42 36ZM32 36H28V40H32V38V36Z" fill="#231F20"/>
</svg>
