<svg width="48" height="48" viewBox="0 0 48 48" fill="none" xmlns="http://www.w3.org/2000/svg">
<path class="iconPath" fill-rule="evenodd" clip-rule="evenodd" d="M4 10V18C4 19.1046 4.89543 20 6 20C7.10457 20 8 19.1046 8 18V10C8 8.89543 8.89543 8 10 8H18C19.1046 8 20 7.10457 20 6C20 4.89543 19.1046 4 18 4H10C6.68629 4 4 6.68629 4 10ZM30 4H38C41.3137 4 44 6.68629 44 10V18C44 19.1046 43.1046 20 42 20C40.8954 20 40 19.1046 40 18V10C40 8.89543 39.1046 8 38 8H30C28.8954 8 28 7.10457 28 6C28 4.89543 28.8954 4 30 4ZM42 28C40.8954 28 40 28.8954 40 30V38C40 39.1046 39.1046 40 38 40H30C28.8954 40 28 40.8954 28 42C28 43.1046 28.8954 44 30 44H38C41.3137 44 44 41.3137 44 38V30C44 28.8954 43.1046 28 42 28ZM10 40H18C19.1046 40 20 40.8954 20 42C20 43.1046 19.1046 44 18 44H10C6.68629 44 4 41.3137 4 38V30C4 28.8954 4.89543 28 6 28C7.10457 28 8 28.8954 8 30V38C8 39.1046 8.89543 40 10 40ZM16 12H32C34.2091 12 36 13.7909 36 16V32C36 34.2091 34.2091 36 32 36H16C13.7909 36 12 34.2091 12 32V16C12 13.7909 13.7909 12 16 12ZM16 16H32V32H16V16Z" fill="#231F20"/>
</svg>
