<svg width="48" height="48" viewBox="0 0 48 48" fill="none" xmlns="http://www.w3.org/2000/svg">
<path fill-rule="evenodd" clip-rule="evenodd" d="M37 4.14C38.7072 3.84548 40.4572 4.32142 41.78 5.44C43.1923 6.651 44.0035 8.41963 44 10.28V25.66C43.9882 27.4942 43.1776 29.2322 41.78 30.42C40.7164 31.3014 39.3813 31.7888 38 31.8C37.6673 31.8297 37.3327 31.8297 37 31.8L16 28.1V39C16 41.7614 13.7614 44 11 44C8.23858 44 6 41.7614 6 39V26C5.97926 25.8273 5.97926 25.6527 6 25.48C4.69132 24.2551 3.96432 22.5321 4 20.74V15.22C3.94807 12.2285 6.05996 9.63507 9 9.08L37 4.14ZM9.68 13.02C8.66195 13.251 7.95479 14.177 8 15.22V20.74C7.97068 21.7779 8.67101 22.695 9.68 22.94L14 23.68V12.26L9.68 13.02ZM12 39C12 39.5523 11.5523 40 11 40C10.4477 40 10 39.5523 10 39V27L12 27.36V39ZM39.2 27.44C39.7132 26.9915 40.0053 26.3415 40 25.66V10.22C40.0026 9.53904 39.711 8.89013 39.2 8.44C38.8645 8.15619 38.4394 8.00032 38 8H37.68L18 11.56V24.4L37.68 27.86C38.2237 27.9495 38.7794 27.796 39.2 27.44Z" fill="#231F20"/>
</svg>
