<svg width="1422" height="949" viewBox="0 0 1422 949" fill="none" xmlns="http://www.w3.org/2000/svg">
<path fill-rule="evenodd" clip-rule="evenodd" d="M206.05 528.362C207.024 531.204 206.313 534.352 204.213 536.5L192.213 548.8C192.132 548.939 192.132 549.111 192.213 549.25L194.8 566.2C195.295 569.218 194.023 572.253 191.525 574.017C189.027 575.781 185.741 575.963 183.063 574.487L169.075 566.725C168.934 566.652 168.766 566.652 168.625 566.725L154.638 574.487C151.962 575.996 148.656 575.829 146.147 574.057C143.638 572.285 142.373 569.226 142.9 566.2L145.675 549.175C145.744 549.02 145.744 548.843 145.675 548.687L133.825 536.5C131.735 534.348 131.012 531.213 131.95 528.362C132.893 525.516 135.359 523.442 138.325 523L154.375 520.412C154.536 520.369 154.672 520.26 154.75 520.112L161.8 505.112C163.084 502.292 165.902 500.487 169 500.5C172.136 500.502 174.974 502.355 176.238 505.225L183.288 520.225C183.349 520.371 183.473 520.481 183.625 520.525L199.713 523C202.676 523.43 205.135 525.511 206.05 528.362ZM184.788 550.375C184.388 547.861 185.194 545.305 186.963 543.475L198.963 531.137C199.071 530.966 199.071 530.747 198.963 530.575C198.897 530.396 198.739 530.267 198.55 530.237L182.5 527.762C179.86 527.371 177.592 525.681 176.463 523.262L169.45 508.262C169.371 508.088 169.191 507.983 169 508C168.884 507.989 168.769 508.028 168.684 508.107C168.598 508.185 168.55 508.296 168.55 508.412L161.5 523.412C160.423 525.794 158.228 527.482 155.65 527.912L139.563 530.387C139.384 530.422 139.24 530.552 139.188 530.725C139.087 530.899 139.087 531.113 139.188 531.287L151.038 543.55C152.822 545.371 153.63 547.935 153.213 550.45L150.438 567.475C150.411 567.678 150.498 567.879 150.663 568H151.15L165.025 560.162C167.429 558.834 170.346 558.834 172.75 560.162L187.038 567.925C187.178 568.045 187.385 568.045 187.525 567.925C187.69 567.804 187.776 567.603 187.75 567.4L184.788 550.375Z" fill="#231F20" fill-opacity="0.1"/>
<path d="M1412.33 115.167V134.5C1412.33 137.169 1410.17 139.333 1407.5 139.333C1404.83 139.333 1402.67 137.169 1402.67 134.5V127.347L1372.46 161.857C1371.54 162.9 1370.22 163.498 1368.83 163.5C1367.49 163.534 1366.2 163.009 1365.26 162.05L1354.43 151.127L1323.98 186.023C1322.87 187.407 1321.08 188.068 1319.33 187.744C1317.59 187.419 1316.16 186.162 1315.61 184.471C1315.07 182.779 1315.5 180.925 1316.73 179.643L1350.56 140.977C1351.44 139.969 1352.7 139.37 1354.04 139.325C1355.38 139.279 1356.67 139.789 1357.62 140.735L1368.83 151.562L1396.24 120H1388.17C1385.5 120 1383.33 117.836 1383.33 115.167C1383.33 112.497 1385.5 110.333 1388.17 110.333H1407.5C1410.17 110.333 1412.33 112.497 1412.33 115.167Z" fill="#231F20" fill-opacity="0.1"/>
<path fill-rule="evenodd" clip-rule="evenodd" d="M-15.0106 78.532L-3.64576 73.9601C2.63089 71.4351 9.76602 74.4764 12.291 80.753L16.8629 92.1179C19.3879 98.3945 16.3466 105.53 10.07 108.055L-1.2949 112.627C-7.57155 115.152 -14.7067 112.11 -17.2317 105.834L-21.8036 94.4687C-24.3286 88.1921 -21.2873 81.057 -15.0106 78.532ZM7.02203 100.478C9.11424 99.6364 10.128 97.258 9.28635 95.1658L4.71444 83.801C3.87277 81.7088 1.4944 80.695 -0.597819 81.5366L-11.9627 86.1086C-14.0549 86.9502 -15.0687 89.3286 -14.227 91.4208L-9.6551 102.786C-8.81343 104.878 -6.43505 105.892 -4.34284 105.05L7.02203 100.478ZM13.1179 115.631L1.75304 120.203C-4.52361 122.728 -7.56492 129.863 -5.03992 136.14L-0.468016 147.505C2.05698 153.781 9.19211 156.823 15.4688 154.298L26.8336 149.726C33.1103 147.201 36.1516 140.066 33.6266 133.789L29.0547 122.424C26.5297 116.148 19.3945 113.106 13.1179 115.631ZM23.7857 142.149C25.8779 141.308 26.8917 138.929 26.05 136.837L21.4781 125.472C20.6364 123.38 18.2581 122.366 16.1658 123.208L4.80097 127.78C2.70876 128.621 1.69499 131 2.53665 133.092L7.10856 144.457C7.95023 146.549 10.3286 147.563 12.4208 146.721L23.7857 142.149ZM54.7891 98.8676L43.4242 103.439C37.1476 105.964 34.1063 113.1 36.6313 119.376L41.2032 130.741C43.7282 137.018 50.8633 140.059 57.1399 137.534L68.5048 132.962C74.7814 130.437 77.8228 123.302 75.2978 117.025L70.7259 105.661C68.2009 99.3839 61.0657 96.3426 54.7891 98.8676ZM65.4569 125.386C67.5491 124.544 68.5629 122.166 67.7212 120.073L63.1493 108.708C62.3076 106.616 59.9292 105.602 57.837 106.444L46.4721 111.016C44.3799 111.858 43.3662 114.236 44.2078 116.328L48.7797 127.693C49.6214 129.785 51.9998 130.799 54.092 129.958L65.4569 125.386ZM38.0254 57.1964L26.6606 61.7683C20.3839 64.2933 17.3426 71.4284 19.8676 77.7051L24.4395 89.07C26.9645 95.3466 34.0996 98.3879 40.3763 95.8629L51.7411 91.291C58.0178 88.766 61.0591 81.6309 58.5341 75.3542L53.9622 63.9894C51.4372 57.7127 44.3021 54.6714 38.0254 57.1964ZM48.6932 83.7144C50.7854 82.8728 51.7992 80.4944 50.9575 78.4022L46.3856 67.0373C45.544 64.9451 43.1656 63.9313 41.0734 64.773L29.7085 69.3449C27.6163 70.1866 26.6025 72.5649 27.4442 74.6572L32.0161 86.022C32.8577 88.1142 35.2361 89.128 37.3283 88.2863L48.6932 83.7144Z" fill="#231F20" fill-opacity="0.1"/>
<path fill-rule="evenodd" clip-rule="evenodd" d="M619.245 26.1977L631.836 78.9008C633.695 86.716 630.599 90.7186 628.655 92.368C626.71 94.0174 622.485 96.2244 614.992 93.1877L565.108 72.1146C562.973 71.2526 561.071 69.9025 559.552 68.1727C558.267 66.7008 557.419 64.8985 557.106 62.9698C556.654 58.5371 558.591 54.1979 562.193 51.5748L599.314 20.0903C602.482 16.9511 607.087 15.7463 611.386 16.9317C615.455 18.4207 618.44 21.9405 619.245 26.1977ZM568.101 65.1503L618.018 86.1463C620.668 87.2421 622.945 87.3759 623.946 86.527C624.947 85.678 625.187 83.4096 624.51 80.6402L611.846 27.8513C611.622 26.7424 611.143 25.7009 610.446 24.8097C610.095 24.4179 609.654 24.117 609.162 23.9325C607.391 23.6622 605.602 24.2938 604.394 25.616L567.044 57.2945C565.542 58.2709 564.627 59.9325 564.605 61.7235C565.122 63.3797 566.435 64.6664 568.101 65.1503Z" fill="#231F20" fill-opacity="0.1"/>
<path fill-rule="evenodd" clip-rule="evenodd" d="M1220.45 847.699C1222.38 846.208 1224.9 845.731 1227.23 846.416C1229.58 847.114 1231.45 848.901 1232.24 851.215L1249.6 900.94C1250.78 904.087 1249.74 907.635 1247.06 909.657L1230.26 922.628C1229.62 923.115 1228.84 923.386 1228.04 923.402L1205.27 923.518L1191.45 934.204C1190.81 934.702 1190.09 935.089 1189.32 935.35C1187.82 935.862 1186.2 935.91 1184.67 935.487C1182.32 934.789 1180.46 933.002 1179.66 930.689L1162.31 880.964C1161.23 877.877 1162.25 874.445 1164.84 872.45L1181.57 859.3L1181.89 859.188L1182.72 858.901L1183.6 858.792L1183.93 858.68L1206.7 858.564L1220.45 847.699ZM1186.82 928.19L1199.48 918.431L1182.12 868.706L1169.47 878.465L1186.82 928.19ZM1222.62 915.696L1206.64 915.932L1189.28 866.207L1205.27 865.971L1222.62 915.696ZM1229.78 913.197L1242.44 903.438L1225.08 853.713L1212.43 863.472L1229.78 913.197Z" fill="#231F20" fill-opacity="0.1"/>
</svg>
